<?xml version="1.0" encoding="UTF-8" standalone="no"?>
<!DOCTYPE svg PUBLIC "-//W3C//DTD SVG 1.1//EN"
 "http://www.w3.org/Graphics/SVG/1.1/DTD/svg11.dtd">
<!-- Generated by graphviz version 2.40.1 (20161225.0304)
 -->
<!-- Title: G Pages: 1 -->
<svg width="147pt" height="264pt"
 viewBox="0.00 0.00 147.23 264.00" xmlns="http://www.w3.org/2000/svg" xmlns:xlink="http://www.w3.org/1999/xlink">
<g id="graph0" class="graph" transform="scale(1 1) rotate(0) translate(4 260)">
<title>G</title>
<polygon fill="#ffffff" stroke="transparent" points="-4,4 -4,-260 143.2314,-260 143.2314,4 -4,4"/>
<!-- 4506843064 -->
<g id="node1" class="node">
<title>4506843064</title>
<polygon fill="none" stroke="#000000" points="12.4346,-219.5 12.4346,-255.5 126.7969,-255.5 126.7969,-219.5 12.4346,-219.5"/>
<text text-anchor="middle" x="69.6157" y="-233.3" font-family="Times,serif" font-size="14.00" fill="#000000">input: InputLayer</text>
</g>
<!-- 4506843120 -->
<g id="node2" class="node">
<title>4506843120</title>
<polygon fill="none" stroke="#000000" points="0,-146.5 0,-182.5 139.2314,-182.5 139.2314,-146.5 0,-146.5"/>
<text text-anchor="middle" x="69.6157" y="-160.3" font-family="Times,serif" font-size="14.00" fill="#000000">dense_layer_1: Dense</text>
</g>
<!-- 4506843064&#45;&gt;4506843120 -->
<g id="edge1" class="edge">
<title>4506843064&#45;&gt;4506843120</title>
<path fill="none" stroke="#000000" d="M69.6157,-219.4551C69.6157,-211.3828 69.6157,-201.6764 69.6157,-192.6817"/>
<polygon fill="#000000" stroke="#000000" points="73.1158,-192.5903 69.6157,-182.5904 66.1158,-192.5904 73.1158,-192.5903"/>
</g>
<!-- 5276344104 -->
<g id="node3" class="node">
<title>5276344104</title>
<polygon fill="none" stroke="#000000" points="0,-73.5 0,-109.5 139.2314,-109.5 139.2314,-73.5 0,-73.5"/>
<text text-anchor="middle" x="69.6157" y="-87.3" font-family="Times,serif" font-size="14.00" fill="#000000">dense_layer_2: Dense</text>
</g>
<!-- 4506843120&#45;&gt;5276344104 -->
<g id="edge2" class="edge">
<title>4506843120&#45;&gt;5276344104</title>
<path fill="none" stroke="#000000" d="M69.6157,-146.4551C69.6157,-138.3828 69.6157,-128.6764 69.6157,-119.6817"/>
<polygon fill="#000000" stroke="#000000" points="73.1158,-119.5903 69.6157,-109.5904 66.1158,-119.5904 73.1158,-119.5903"/>
</g>
<!-- 5271794128 -->
<g id="node4" class="node">
<title>5271794128</title>
<polygon fill="none" stroke="#000000" points=".3794,-.5 .3794,-36.5 138.8521,-36.5 138.8521,-.5 .3794,-.5"/>
<text text-anchor="middle" x="69.6157" y="-14.3" font-family="Times,serif" font-size="14.00" fill="#000000">sigmoid_layer: Dense</text>
</g>
<!-- 5276344104&#45;&gt;5271794128 -->
<g id="edge3" class="edge">
<title>5276344104&#45;&gt;5271794128</title>
<path fill="none" stroke="#000000" d="M69.6157,-73.4551C69.6157,-65.3828 69.6157,-55.6764 69.6157,-46.6817"/>
<polygon fill="#000000" stroke="#000000" points="73.1158,-46.5903 69.6157,-36.5904 66.1158,-46.5904 73.1158,-46.5903"/>
</g>
</g>
</svg>
